<svg width="65" height="65" viewBox="0 0 65 65" fill="none" xmlns="http://www.w3.org/2000/svg">
<circle cx="32.5" cy="32.5" r="32.5" fill="#E0E0E0"/>
<path d="M41.3635 34.5C42.1919 34.5 42.8635 33.8284 42.8635 33C42.8635 32.1716 42.1919 31.5 41.3635 31.5L41.3635 34.5ZM22.5756 31.9393C21.9898 32.5251 21.9898 33.4749 22.5756 34.0607L32.1215 43.6066C32.7073 44.1924 33.657 44.1924 34.2428 43.6066C34.8286 43.0208 34.8286 42.0711 34.2428 41.4853L25.7576 33L34.2428 24.5147C34.8286 23.9289 34.8286 22.9792 34.2428 22.3934C33.657 21.8076 32.7073 21.8076 32.1215 22.3934L22.5756 31.9393ZM41.3635 31.5L23.6362 31.5L23.6362 34.5L41.3635 34.5L41.3635 31.5Z" fill="white"/>
</svg>
