<svg width="281" height="206" viewBox="0 0 281 206" fill="none" xmlns="http://www.w3.org/2000/svg">
<g filter="url(#filter0_d_7142_24859)">
<path d="M68.5767 172.478L71.6584 186.888C72.4701 190.684 77.1081 192.148 79.9513 189.506L101.095 169.86C102.02 169.001 103.204 168.523 104.466 168.523H247.065C263.226 168.523 266.397 158.131 265.963 152.935V29.4304C265.963 16.96 253.364 14.6418 247.065 15.0415H34.6301C17.427 15.0415 14.4293 24.6341 15.0809 29.4304C15.2981 64.0038 15.0809 137.1 15.0809 152.935C15.0809 168.523 26.1587 168.523 34.6301 168.523H63.6873C66.0458 168.523 68.0835 170.171 68.5767 172.478Z" fill="white"/>
</g>
<defs>
<filter id="filter0_d_7142_24859" x="0" y="0" width="281" height="205.848" filterUnits="userSpaceOnUse" color-interpolation-filters="sRGB">
<feFlood flood-opacity="0" result="BackgroundImageFix"/>
<feColorMatrix in="SourceAlpha" type="matrix" values="0 0 0 0 0 0 0 0 0 0 0 0 0 0 0 0 0 0 127 0" result="hardAlpha"/>
<feOffset/>
<feGaussianBlur stdDeviation="7.5"/>
<feComposite in2="hardAlpha" operator="out"/>
<feColorMatrix type="matrix" values="0 0 0 0 0 0 0 0 0 0 0 0 0 0 0 0 0 0 0.1 0"/>
<feBlend mode="normal" in2="BackgroundImageFix" result="effect1_dropShadow_7142_24859"/>
<feBlend mode="normal" in="SourceGraphic" in2="effect1_dropShadow_7142_24859" result="shape"/>
</filter>
</defs>
</svg>
