<svg width="19" height="19" viewBox="0 0 19 19" fill="none" xmlns="http://www.w3.org/2000/svg">
<path d="M9.57588 1.83333C7.57636 1.83333 5.65873 2.60595 4.24485 3.98122C2.83097 5.35648 2.03666 7.22175 2.03666 9.16667C2.03666 11.1116 2.83097 12.9769 4.24485 14.3521C5.65873 15.7274 7.57636 16.5 9.57588 16.5C11.5754 16.5 13.493 15.7274 14.9069 14.3521C16.3208 12.9769 17.1151 11.1116 17.1151 9.16667C17.1151 7.22175 16.3208 5.35648 14.9069 3.98122C13.493 2.60595 11.5754 1.83333 9.57588 1.83333ZM0.151855 9.16667C0.151855 4.10392 4.37099 0 9.57588 0C14.7808 0 18.9999 4.10392 18.9999 9.16667C18.9999 14.2294 14.7808 18.3333 9.57588 18.3333C4.37099 18.3333 0.151855 14.2294 0.151855 9.16667ZM9.57588 13.75C9.82583 13.75 10.0655 13.6534 10.2423 13.4815C10.419 13.3096 10.5183 13.0764 10.5183 12.8333V9.16667C10.5183 8.92355 10.419 8.69039 10.2423 8.51849C10.0655 8.34658 9.82583 8.25 9.57588 8.25C9.32594 8.25 9.08624 8.34658 8.90951 8.51849C8.73277 8.69039 8.63348 8.92355 8.63348 9.16667V12.8333C8.63348 13.0764 8.73277 13.3096 8.90951 13.4815C9.08624 13.6534 9.32594 13.75 9.57588 13.75ZM9.57588 4.58333C9.32594 4.58333 9.08624 4.67991 8.90951 4.85182C8.73277 5.02373 8.63348 5.25689 8.63348 5.5C8.63348 5.74312 8.73277 5.97627 8.90951 6.14818C9.08624 6.32009 9.32594 6.41667 9.57588 6.41667H9.58531C9.83525 6.41667 10.075 6.32009 10.2517 6.14818C10.4284 5.97627 10.5277 5.74312 10.5277 5.5C10.5277 5.25689 10.4284 5.02373 10.2517 4.85182C10.075 4.67991 9.83525 4.58333 9.58531 4.58333H9.57588Z" fill="#6F6F6F" fill-opacity="0.5"/>
</svg>
